<?xml version="1.0" encoding="utf-8"?>
<!-- Generator: Adobe Illustrator 23.1.0, SVG Export Plug-In . SVG Version: 6.00 Build 0)  -->
<svg version="1.1" id="Layer_1" xmlns="http://www.w3.org/2000/svg" xmlns:xlink="http://www.w3.org/1999/xlink" x="0px" y="0px"
	 viewBox="0 0 1183 263" style="enable-background:new 0 0 1183 263;" xml:space="preserve">
<style type="text/css">
	.st0{fill:#D64D51;}
	.st1{fill:#2F485B;}
</style>
<g>
	<g>
		<path class="st0" d="M95.3,221.4c0.1-0.8,0.1-1.3,0.1-1.8c0-36.2,0-72.4,0-108.7c0-0.9-0.4-2-0.9-2.8c-2.8-4.5-7.2-6.8-12.1-8.4
			c-6.9-2.2-13.9-4.3-20.8-6.4c-5.1-1.6-10.2-3.2-15.4-4.5c-2.2-0.6-4.7-0.9-7-0.6c-3.4,0.4-5.4,4-5.6,8.4
			c-0.4,10.3,1.5,20.3,3.2,30.3c1.5,8.8,3.4,17.5,5.1,26.2c1.8,9.4,3.4,18.9,5.2,28.4c1.5,8.3,3.2,16.5,4.7,24.8
			c0.3,1.8,1.1,3,2.8,3.9c8.5,4.3,17.3,7.8,26.7,9.4C86,220.2,90.6,220.7,95.3,221.4z M107.3,220.4c0.9,0,1.5,0.1,2.2,0
			c1.8-0.2,3.7-0.6,5.5-0.8c11.5-1.6,22-5.9,31.7-12.1c0.6-0.4,1.3-1,1.4-1.7c1.2-6.5,2.4-13,3.5-19.5c1.5-8.2,2.9-16.4,4.4-24.6
			c1.4-7.5,2.8-15,4.2-22.5c1.4-7.6,2.8-15.1,4.3-22.7c1.1-6,2.5-12,2.2-18.3c-0.2-4.8-2.6-8.8-7.5-9.5c-4-0.6-7.7,0.4-11.3,1.7
			c-7.5,2.7-15,5.6-22.4,8.4c-3.4,1.3-6.9,2.2-10.2,3.8c-6.4,3.1-8.1,9.1-8.1,15.4c-0.1,33.2,0,66.5,0,99.7
			C107.3,218.6,107.3,219.3,107.3,220.4z M30.6,67.8c4,0.9,8.2,1.4,12,2.6c9.9,3.3,19.7,6.9,29.6,10.3c6.4,2.2,12.7,4.7,18.5,8.4
			c4.3,2.7,8,6.1,10.9,10.7c1.8-1.9,3.3-3.8,5.2-5.3c9.1-7.4,19.7-11.9,30.6-15.7c9.8-3.5,19.7-6.9,29.7-10.4
			C130.4,25.4,63.9,27.8,30.6,67.8z M35.5,195.7c-0.2-6.4-20-98.2-21.8-102c-4.1,9.2-6.1,19-6.8,29c-0.5,7.7,0.2,15.5,1.6,23.1
			c3.5,17.8,10.9,33.6,23.3,47C32.8,193.8,34.1,194.5,35.5,195.7z M184.7,97.4c-0.2,0-0.5-0.1-0.7-0.1
			c-7.1,32.5-14.3,64.9-21.4,97.4c0.3,0.1,0.5,0.2,0.8,0.3c9.5-9.1,16.2-20.2,20.7-32.4C192.1,140.9,193.6,119.1,184.7,97.4z"/>
		<path class="st0" d="M95.3,221.4c-4.7-0.6-9.3-1.1-13.9-1.9c-9.4-1.6-18.2-5.1-26.7-9.4c-1.7-0.9-2.5-2.1-2.8-3.9
			c-1.5-8.3-3.2-16.5-4.7-24.8c-1.8-9.5-3.4-18.9-5.2-28.4c-1.6-8.7-3.5-17.4-5.1-26.2c-1.7-10-3.7-20-3.2-30.3
			c0.2-4.4,2.2-7.9,5.6-8.4c2.3-0.3,4.8,0,7,0.6c5.2,1.3,10.3,3,15.4,4.5c6.9,2.1,13.9,4.2,20.8,6.4c4.9,1.5,9.3,3.9,12.1,8.4
			c0.5,0.8,0.9,1.8,0.9,2.8c0,36.2,0,72.4,0,108.7C95.5,220.1,95.4,220.6,95.3,221.4z"/>
		<path class="st0" d="M107.3,220.4c0-1.1,0-1.8,0-2.5c0-33.2-0.1-66.5,0-99.7c0-6.4,1.7-12.3,8.1-15.4c3.2-1.6,6.8-2.6,10.2-3.8
			c7.5-2.8,14.9-5.7,22.4-8.4c3.6-1.3,7.3-2.3,11.3-1.7c4.9,0.7,7.3,4.7,7.5,9.5c0.3,6.2-1.1,12.2-2.2,18.3
			c-1.4,7.6-2.9,15.1-4.3,22.7c-1.4,7.5-2.9,15-4.2,22.5c-1.5,8.2-3,16.4-4.4,24.6c-1.2,6.5-2.3,13-3.5,19.5
			c-0.1,0.6-0.8,1.3-1.4,1.7c-9.7,6.2-20.2,10.5-31.7,12.1c-1.8,0.3-3.7,0.6-5.5,0.8C108.9,220.4,108.2,220.4,107.3,220.4z"/>
		<path class="st0" d="M30.6,67.8c33.2-40,99.8-42.4,136.5,0.6c-10,3.5-19.8,6.9-29.7,10.4c-10.9,3.9-21.5,8.4-30.6,15.7
			c-1.8,1.5-3.3,3.4-5.2,5.3c-2.9-4.6-6.6-7.9-10.9-10.7c-5.7-3.6-12-6.1-18.4-8.3c-9.9-3.4-19.7-7.1-29.6-10.3
			C38.8,69.2,34.6,68.7,30.6,67.8z"/>
		<path class="st0" d="M35.5,195.7c-1.4-1.1-2.7-1.9-3.7-2.9c-12.3-13.4-19.8-29.2-23.3-47c-1.5-7.6-2.2-15.4-1.6-23.1
			c0.7-10,2.6-19.8,6.8-29C15.5,97.4,35.3,189.3,35.5,195.7z"/>
		<path class="st0" d="M184.7,97.4c8.9,21.8,7.4,43.6-0.6,65.2c-4.5,12.3-11.2,23.4-20.7,32.4c-0.3-0.1-0.5-0.2-0.8-0.3
			c7.1-32.5,14.3-64.9,21.4-97.4C184.2,97.3,184.4,97.3,184.7,97.4z"/>
	</g>
</g>
<g>
	<path class="st1" d="M224.6,146.7V62.5h16.8l29.3,40.8l29.8-40.8h16.2v84.2H300V89.9l-22,32.3h-14.1l-22.5-32.3v56.8H224.6z"/>
	<path class="st1" d="M327.6,146.7V87.9l25.1-25.4h50.4v84.2h-16.7v-25.1h-42v25.1H327.6z M386.4,104.7V79.3h-25.2l-16.7,17v8.4
		C344.5,104.7,386.4,104.7,386.4,104.7z"/>
	<path class="st1" d="M474,146.7v-8.3l-8.4-8.5l-8.4-8.3H432v25.1h-16.8V62.5h67.2l8.3,8.5v42.1l-8.3,8.4l8.3,8.3v16.8L474,146.7
		L474,146.7z M474,104.7V79.3h-42v25.4C432,104.7,474,104.7,474,104.7z"/>
	<path class="st1" d="M561.5,146.7v-8.3l-8.4-8.5l-8.4-8.3h-25.1v25.1h-16.8V62.5H570l8.3,8.5v42.1l-8.3,8.4l8.3,8.3v16.8
		L561.5,146.7L561.5,146.7z M561.5,104.7V79.3h-42v25.4C519.5,104.7,561.5,104.7,561.5,104.7z"/>
	<path class="st1" d="M598.5,146.7l-8.3-8.3v-16.8H607v8.3h42v-16.7h-50.5l-8.3-6V71l8.3-8.5h58.9l8.3,8.5v16.7H649v-8.4h-42v16.8
		h50.4l8.3,8.4v33.8l-8.3,8.3h-58.9V146.7z"/>
	<path class="st1" d="M734.2,146.7l-8.3-8.3v-16.8h16.8v8.3h42v-16.7h-50.5l-8.3-6V71l8.3-8.5h58.9l8.3,8.5v16.7h-16.7v-8.4h-42
		v16.8h50.4l8.3,8.4v33.8l-8.3,8.3h-58.9V146.7z"/>
	<path class="st1" d="M839.3,146.7V79.3h-29.5V62.5h75.5v16.8h-29.2v67.3L839.3,146.7L839.3,146.7z"/>
	<path class="st1" d="M910.6,62.5v67.3h42V62.5h16.7v75.9l-8.3,8.3h-58.9l-8.3-8.3V62.5H910.6z"/>
	<path class="st1" d="M1056.8,138.4l-8.3,8.3h-67.2V62.5h50.4l25.1,25.3L1056.8,138.4L1056.8,138.4z M1040.1,96.2l-16.8-16.8h-25.1
		v50.5h42L1040.1,96.2L1040.1,96.2z"/>
	<path class="st1" d="M1067.6,146.7V62.5h16.8v84.2H1067.6z"/>
	<path class="st1" d="M1104.8,146.7l-8.3-8.3V71l8.3-8.5h58.9l8.3,8.5v67.3l-8.3,8.3L1104.8,146.7L1104.8,146.7z M1155.3,129.8V79.3
		h-42v50.5H1155.3z"/>
</g>
<g>
	<path class="st0" d="M250,198.6l-6.2,7.4h-8.3L225,193.6v-29.3h8.3v25.1l6.3,8.3l6.1-8.3v-25.1h8.3v25.1l6.3,8.3l6.2-8.3v-25.1h8.3
		v29.3l-10.3,12.5h-8.3L250,198.6z"/>
	<path class="st0" d="M303,206.1v-41.7h35.4v8.3h-27.1v8.4h25v8.3h-25v8.3h27.1v8.3L303,206.1L303,206.1z"/>
	<path class="st0" d="M366.4,206.1v-41.7h33.3l4.1,4.2v12.5l-4.1,4.2l4.1,4.2V202l-4.1,4.1H366.4z M395.6,181.1v-8.4h-20.8v8.4
		H395.6z M395.6,197.7v-8.3h-20.8v8.3H395.6z"/>
	<path class="st0" d="M516.4,202l-4.1,4.1H479v-41.7h25l12.5,12.5L516.4,202L516.4,202z M508.1,181.1l-8.3-8.3h-12.5v25h20.8V181.1z
		"/>
	<path class="st0" d="M544.4,206.1v-41.7h35.4v8.3h-27.1v8.4h25v8.3h-25v8.3h27.1v8.3L544.4,206.1L544.4,206.1z"/>
	<path class="st0" d="M636.4,189.5v-25.1h8.3v29.3l-12.5,12.5h-12.5l-12.5-12.5v-29.3h8.3v25.1l8.3,8.3h4.2L636.4,189.5z"/>
	<path class="st0" d="M672.7,206.1v-41.7h35.4v8.3H681v8.4h25v8.3h-25v8.3h27.1v8.3L672.7,206.1L672.7,206.1z"/>
	<path class="st0" d="M744.5,164.4v33.4h27.1v8.3h-35.4v-41.7H744.5z"/>
	<path class="st0" d="M802.5,206.1l-4.1-4.1v-33.4l4.1-4.2h29.2l4.1,4.2V202l-4.1,4.1H802.5z M827.5,197.7v-25h-20.8v25H827.5z"/>
	<path class="st0" d="M864.4,206.1v-41.7h33.3l4.1,4.2v20.9l-4.1,4.2h-25v12.5L864.4,206.1L864.4,206.1z M893.5,185.3v-12.6h-20.8
		v12.6H893.5z"/>
	<path class="st0" d="M929.8,206.1v-41.7h8.3l14.5,20.2l14.8-20.2h8v41.7h-8.3V178l-10.9,16h-7l-11.1-16v28.1H929.8z"/>
	<path class="st0" d="M1004.2,206.1v-41.7h35.4v8.3h-27.1v8.4h25v8.3h-25v8.3h27.1v8.3L1004.2,206.1L1004.2,206.1z"/>
	<path class="st0" d="M1096.7,206.1l-20.8-27.8v27.8h-8.3v-41.7h8.3l20.8,27.8v-27.8h8.3v41.7H1096.7z"/>
	<path class="st0" d="M1146.5,206.1v-33.4h-14.6v-8.3h37.4v8.3h-14.5v33.4H1146.5z"/>
</g>
</svg>
